<?xml version="1.0" encoding="utf-8"?>
<!-- Generator: Adobe Illustrator 21.0.0, SVG Export Plug-In . SVG Version: 6.00 Build 0)  -->
<svg version="1.1" id="Capa_1" xmlns="http://www.w3.org/2000/svg" xmlns:xlink="http://www.w3.org/1999/xlink" x="0px" y="0px"
	 viewBox="0 0 50 50" style="enable-background:new 0 0 50 50;" xml:space="preserve">
<style type="text/css">
	.st0{fill:#FFFFFF;}
</style>
<path class="st0" d="M85.3,3.8h-8.6c-0.5,0-0.9,0.4-0.9,0.9s0.4,0.9,0.9,0.9h8.6c0.5,0,0.9-0.4,0.9-0.9S85.8,3.8,85.3,3.8z
	 M80.9,6.7c-1.9,0-4.5,0-4.5,0s0.4,0.8,1.5,1.7c1,0.9,1.2,1,3,1l0,0c0,0,0.1,0,0.1,0s0.1,0,0.1,0l0,0c1.8,0,1.9,0,3-1
	c1.1-1,1.5-1.7,1.5-1.7S82.9,6.7,80.9,6.7L80.9,6.7z M91.5-16.1c-0.6-5.1-4.8-9-9.9-9.4c-6.2-0.4-11.3,4.5-11.3,10.6
	c0,1.4,0.3,2.7,0.7,3.9c0.2,0.7,0.6,1.3,1,1.9c0.1,0.2,0.3,0.4,0.4,0.6c0.7,1,1.5,1.9,1.9,2.9c0.5,1.2,0.7,3,0.7,4.1
	c0,0.7,0.6,1.2,1.2,1.2h9.4c0.6,0,1.1-0.5,1.1-1.1c0-1.2,0.2-3,0.8-4.2c0.4-1,1.2-1.9,1.9-2.9c0.1-0.2,0.3-0.4,0.4-0.6
	c0.4-0.6,0.8-1.2,1-1.9C91.5-12.5,91.8-14.3,91.5-16.1z M80.9-21c-4.5,0-6.1,4.5-6.1,4.7c-0.1,0.4-0.5,0.6-0.9,0.6
	c-0.1,0-0.2,0-0.3,0c-0.5-0.2-0.7-0.7-0.6-1.2c0-0.1,2-5.9,7.9-5.9c0.5,0,0.9,0.4,0.9,0.9S81.4-21,80.9-21z M85.3,0.8h-8.6
	c-0.5,0-0.9,0.4-0.9,0.9s0.4,0.9,0.9,0.9h8.6c0.5,0,0.9-0.4,0.9-0.9S85.8,0.8,85.3,0.8z"/>
<path class="st0" d="M30.6,34.9c-0.1,0.9-0.6,1.6-1.1,1.6h-9c-0.6,0-1-0.7-1.1-1.6H6.3v0.6c0,2.1,1,3.8,2.2,3.8h33.2
	c1.2,0,2.2-1.7,2.2-3.8v-0.6H30.6z"/>
<path class="st0" d="M39.5,10.3h-29c-0.7,0-1.3,0.6-1.3,1.4v22.1h31.6V11.7C40.8,10.9,40.2,10.3,39.5,10.3z M25,10.9
	c0.4,0,0.8,0.3,0.8,0.8c0,0.4-0.3,0.8-0.8,0.8s-0.8-0.3-0.8-0.8C24.3,11.3,24.6,10.9,25,10.9z M37.8,30.3c0,0.4-0.3,0.7-0.6,0.7
	H12.8c-0.4,0-0.6-0.3-0.6-0.7V13.7c0-0.4,0.3-0.7,0.6-0.7h24.4c0.4,0,0.6,0.3,0.6,0.7V30.3z"/>
</svg>
