<?xml version="1.0" encoding="utf-8"?>
<!-- Generator: Adobe Illustrator 21.0.0, SVG Export Plug-In . SVG Version: 6.00 Build 0)  -->
<svg version="1.1" id="Capa_1" xmlns="http://www.w3.org/2000/svg" xmlns:xlink="http://www.w3.org/1999/xlink" x="0px" y="0px"
	 viewBox="0 0 50 50" style="enable-background:new 0 0 50 50;" xml:space="preserve">
<style type="text/css">
	.st0{fill:#FFFFFF;}
</style>
<path class="st0" d="M29.3,37.3h-8.6c-0.5,0-0.9,0.4-0.9,0.9s0.4,0.9,0.9,0.9h8.6c0.5,0,0.9-0.4,0.9-0.9S29.8,37.3,29.3,37.3z
	 M24.9,40.2c-1.9,0-4.5,0-4.5,0s0.4,0.8,1.5,1.7c1,0.9,1.2,1,3,1l0,0c0,0,0.1,0,0.1,0c0,0,0.1,0,0.1,0l0,0c1.8,0,1.9,0,3-1
	c1.1-1,1.5-1.7,1.5-1.7S26.9,40.2,24.9,40.2L24.9,40.2z M35.5,17.4c-0.6-5.1-4.8-9-9.9-9.4c-6.2-0.4-11.3,4.5-11.3,10.6
	c0,1.4,0.3,2.7,0.7,3.9c0.2,0.7,0.6,1.3,1,1.9c0.1,0.2,0.3,0.4,0.4,0.6c0.7,1,1.5,1.9,1.9,2.9c0.5,1.2,0.7,3,0.7,4.1
	c0,0.7,0.6,1.2,1.2,1.2h9.4c0.6,0,1.1-0.5,1.1-1.1c0-1.2,0.2-3,0.8-4.2c0.4-1,1.2-1.9,1.9-2.9c0.1-0.2,0.3-0.4,0.4-0.6
	c0.4-0.6,0.8-1.2,1-1.9C35.5,21,35.8,19.2,35.5,17.4z M24.9,12.5c-4.5,0-6.1,4.5-6.1,4.7c-0.1,0.4-0.5,0.6-0.9,0.6
	c-0.1,0-0.2,0-0.3,0c-0.5-0.2-0.7-0.7-0.6-1.2c0-0.1,2-5.9,7.9-5.9c0.5,0,0.9,0.4,0.9,0.9C25.8,12.1,25.4,12.5,24.9,12.5z
	 M29.3,34.3h-8.6c-0.5,0-0.9,0.4-0.9,0.9s0.4,0.9,0.9,0.9h8.6c0.5,0,0.9-0.4,0.9-0.9S29.8,34.3,29.3,34.3z"/>
</svg>
