<?xml version="1.0" encoding="utf-8"?>
<!-- Generator: Adobe Illustrator 21.0.0, SVG Export Plug-In . SVG Version: 6.00 Build 0)  -->
<svg version="1.1" id="Capa_1" xmlns="http://www.w3.org/2000/svg" xmlns:xlink="http://www.w3.org/1999/xlink" x="0px" y="0px"
	 viewBox="0 0 50 50" style="enable-background:new 0 0 50 50;" xml:space="preserve">
<style type="text/css">
	.st0{fill:#FFFFFF;}
</style>
<path class="st0" d="M85.3,3.8h-8.6c-0.5,0-0.9,0.4-0.9,0.9s0.4,0.9,0.9,0.9h8.6c0.5,0,0.9-0.4,0.9-0.9S85.8,3.8,85.3,3.8z
	 M80.9,6.7c-1.9,0-4.5,0-4.5,0s0.4,0.8,1.5,1.7c1,0.9,1.2,1,3,1l0,0c0,0,0.1,0,0.1,0s0.1,0,0.1,0l0,0c1.8,0,1.9,0,3-1
	c1.1-1,1.5-1.7,1.5-1.7S82.9,6.7,80.9,6.7L80.9,6.7z M91.5-16.1c-0.6-5.1-4.8-9-9.9-9.4c-6.2-0.4-11.3,4.5-11.3,10.6
	c0,1.4,0.3,2.7,0.7,3.9c0.2,0.7,0.6,1.3,1,1.9c0.1,0.2,0.3,0.4,0.4,0.6c0.7,1,1.5,1.9,1.9,2.9c0.5,1.2,0.7,3,0.7,4.1
	c0,0.7,0.6,1.2,1.2,1.2h9.4c0.6,0,1.1-0.5,1.1-1.1c0-1.2,0.2-3,0.8-4.2c0.4-1,1.2-1.9,1.9-2.9c0.1-0.2,0.3-0.4,0.4-0.6
	c0.4-0.6,0.8-1.2,1-1.9C91.5-12.5,91.8-14.3,91.5-16.1z M80.9-21c-4.5,0-6.1,4.5-6.1,4.7c-0.1,0.4-0.5,0.6-0.9,0.6
	c-0.1,0-0.2,0-0.3,0c-0.5-0.2-0.7-0.7-0.6-1.2c0-0.1,2-5.9,7.9-5.9c0.5,0,0.9,0.4,0.9,0.9S81.4-21,80.9-21z M85.3,0.8h-8.6
	c-0.5,0-0.9,0.4-0.9,0.9s0.4,0.9,0.9,0.9h8.6c0.5,0,0.9-0.4,0.9-0.9S85.8,0.8,85.3,0.8z"/>
<g>
	<path class="st0" d="M88.4,39.3c-0.1,0.9-0.6,1.6-1.1,1.6h-9c-0.6,0-1-0.7-1.1-1.6H64v0.6c0,2.1,1,3.8,2.2,3.8h33.2
		c1.2,0,2.2-1.7,2.2-3.8v-0.6H88.4z"/>
	<path class="st0" d="M97.3,14.7h-29c-0.7,0-1.3,0.6-1.3,1.4v22.1h31.6V16.1C98.5,15.3,98,14.7,97.3,14.7z M82.8,15.3
		c0.4,0,0.8,0.3,0.8,0.8c0,0.4-0.3,0.8-0.8,0.8S82,16.5,82,16.1C82,15.6,82.3,15.3,82.8,15.3z M95.6,34.6c0,0.4-0.3,0.7-0.6,0.7
		H70.6c-0.4,0-0.6-0.3-0.6-0.7V18.1c0-0.4,0.3-0.7,0.6-0.7h24.4c0.4,0,0.6,0.3,0.6,0.7V34.6z"/>
</g>
<path class="st0" d="M67.2-45.9l-2.3,0c-0.4,0-0.6,0.4-0.4,0.8l3,3.6c0.2,0.3,0.6,0.3,0.8-0.1l0-3C68.3-45.3,68-45.9,67.2-45.9z"/>
<path class="st0" d="M91.5-48.1H70.6c-0.8,0-1.4,0.6-1.4,1.4v10.8c0,0.8,0.6,1.4,1.4,1.4h20.9c0.8,0,1.4-0.6,1.4-1.4v-10.8
	C92.9-47.5,92.3-48.1,91.5-48.1z"/>
<path class="st0" d="M99.7-46.2l-5.1,3.6c-1.5,1.1-1.4,2.9,0.1,3.9l5,3.2c0.6,0.4,1.3,0,1.3-0.7v-9.3
	C101.1-46.2,100.3-46.7,99.7-46.2z"/>
<path class="st0" d="M85.6-33.4h-9.2c-0.7,0-1.3,0.6-1.3,1.3c0,0.7,0.6,1.3,1.3,1.3h9.2c0.7,0,1.3-0.6,1.3-1.3
	C86.9-32.8,86.3-33.4,85.6-33.4z"/>
<path class="st0" d="M73.8-60c-3,0-5.5,2.4-5.5,5.5s2.4,5.5,5.5,5.5s5.5-2.4,5.5-5.5S76.9-60,73.8-60z M73.7-51.9
	c-1.3,0-2.4-1.1-2.4-2.4s1.1-2.4,2.4-2.4s2.4,1.1,2.4,2.4S75-51.9,73.7-51.9z"/>
<path class="st0" d="M87.2-62.7c-3.8,0-6.8,3.1-6.8,6.8s3.1,6.8,6.8,6.8s6.8-3.1,6.8-6.8S91-62.7,87.2-62.7z M87.1-52.3
	c-1.9,0-3.5-1.5-3.5-3.5c0-1.9,1.5-3.5,3.5-3.5c1.9,0,3.5,1.5,3.5,3.5C90.5-53.9,89-52.3,87.1-52.3z"/>
<g>
	<path class="st0" d="M40.3,29.5c-0.3-2.5-0.7-5.1-1.1-9.1s-0.6-6.4-1.5-7.7c-0.5-0.7-2.6-1-5-2.1c-2.4-1.1-3.6-1.9-3.6-1.9
		s0.4,6.6-0.9,10.2c-1.3,3.6-3.2,6.2-3.2,6.2c0,0-1.9-2.7-3.2-6.2c-1.3-3.6-0.9-10.2-0.9-10.2s-1.2,0.8-3.6,1.9
		c-2.4,1.1-4.5,1.4-5,2.1c-0.9,1.2-1.2,3.7-1.5,7.7s-0.7,6.7-1.1,9.1s0.2,10.1,0.2,10.1s0.5,0.7,2.1,0.7s2.2-0.7,2.2-0.7
		s0.1-1.2,0.5-4c0.4-2.8,1.2-9.4,1.2-9.4s0.2,1.7,0.3,3.4c0.1,1.7,0.2,9.2,0.2,9.2s0.1,0.2,1.7,1c1.7,0.8,4.5,1.6,4.5,1.6l2.5-2.7
		l2.5,2.7c0,0,2.8-0.8,4.5-1.6c1.7-0.8,1.7-1,1.7-1s0.1-7.5,0.2-9.2c0.1-1.7,0.3-3.4,0.3-3.4s0.8,6.6,1.2,9.4c0.4,2.8,0.5,4,0.5,4
		s0.6,0.7,2.2,0.7s2.1-0.7,2.1-0.7S40.7,32,40.3,29.5z M33.7,19.8L30,20.6c0-0.3,0.4-1.4,1-2.5c0.6-1.1,1-0.3,1.9,0.3
		C33.9,18.9,33.7,19.8,33.7,19.8z"/>
	<polygon class="st0" points="28.4,10 25,11.7 21.5,10 21.5,14.3 25,12.6 28.4,14.3 	"/>
</g>
</svg>
